# xmcd CD database file
#
# Track frame offsets:
#	150
#	39207
#	61358
#	92824
#	143781
#	166716
#
# Disc length: 2585 seconds
#
# Revision: 0
# Processed by: cddbd v1.5.1PL2 Copyright (c) Steve Scherf et al.
# Submitted via: CDex 1.51
#
DISCID=430a1706
DTITLE=Nordend 19  - Heart Songs
DYEAR=2005
DGENRE=Jazz
TTITLE0=Metheny's Daughter
TTITLE1=Green Tea
TTITLE2=Follow Your Heart
TTITLE3=My Spanish Heart
TTITLE4=No Name Blues
TTITLE5=Some Other Time
EXTD=YEAR: 2005
EXTT0=
EXTT1=
EXTT2=
EXTT3=
EXTT4=
EXTT5=
PLAYORDER=
